<?xml version="1.0" standalone="no"?>
<!DOCTYPE svg PUBLIC "-//W3C//DTD SVG 20010904//EN"
 "http://www.w3.org/TR/2001/REC-SVG-20010904/DTD/svg10.dtd">
<svg version="1.0" xmlns="http://www.w3.org/2000/svg"
 width="418.000000pt" height="452.000000pt" viewBox="0 0 418.000000 452.000000"
 preserveAspectRatio="xMidYMid meet">

<g transform="translate(0.000000,452.000000) scale(0.100000,-0.100000)"
fill="#000000" stroke="none">
<path d="M1389 3111 c25 -34 31 -38 31 -17 0 7 -12 22 -27 31 l-26 18 22 -32z"/>
<path d="M2363 3110 c23 -76 31 -155 31 -292 l1 -158 24 0 c13 0 22 -3 19 -6
-8 -8 -269 -7 -277 1 -3 4 -6 67 -6 141 l0 134 -80 0 -80 0 1 -133 c1 -72 -3
-138 -9 -144 -7 -10 -58 -13 -194 -13 l-184 0 3 -67 3 -68 121 4 c67 2 154 0
193 -4 l71 -7 0 -276 0 -275 26 24 c14 13 30 43 37 67 6 23 16 41 22 39 5 -2
25 -25 43 -51 l32 -48 0 260 0 260 62 7 c33 4 120 6 192 4 l131 -4 3 64 c2 45
-1 67 -10 72 -9 6 -7 9 9 9 19 0 21 4 16 38 -9 65 -54 184 -105 283 -45 86
-106 177 -95 139z"/>
<path d="M1446 3076 c6 -16 54 -51 53 -39 0 5 -13 18 -30 31 -19 15 -27 18
-23 8z"/>
<path d="M1358 3005 c17 -8 32 -19 32 -25 0 -5 6 -10 13 -10 6 0 -1 12 -16 25
-15 14 -36 25 -45 25 -9 -1 -2 -7 16 -15z"/>
<path d="M1526 3007 c3 -10 9 -15 12 -12 3 3 0 11 -7 18 -10 9 -11 8 -5 -6z"/>
<path d="M1220 2993 c-13 -15 -12 -16 4 -10 10 4 20 7 22 7 2 0 4 5 4 10 0 15
-13 12 -30 -7z"/>
<path d="M1550 2981 c0 -5 7 -12 16 -15 14 -5 15 -4 4 9 -14 17 -20 19 -20 6z"/>
<path d="M1410 2951 c0 -6 4 -13 10 -16 6 -3 7 1 4 9 -7 18 -14 21 -14 7z"/>
<path d="M2622 2936 c-31 -17 -62 -65 -62 -96 0 -14 9 -40 20 -58 53 -86 198
-77 236 15 19 45 5 92 -37 128 -24 20 -41 25 -82 25 -29 -1 -62 -6 -75 -14z"/>
<path d="M1600 2936 c0 -2 8 -10 18 -17 15 -13 16 -12 3 4 -13 16 -21 21 -21
13z"/>
<path d="M1416 2911 c-4 -7 -5 -15 -2 -18 9 -9 19 4 14 18 -4 11 -6 11 -12 0z"/>
<path d="M2940 2866 c-49 -81 -284 -269 -351 -283 -25 -5 -28 -10 -31 -47 l-3
-41 -108 -5 -108 -5 -24 -52 -24 -52 37 -6 c20 -3 81 -20 134 -37 96 -31 97
-31 125 -13 83 54 243 252 311 383 71 136 103 256 42 158z"/>
<path d="M1400 2859 c0 -5 5 -7 10 -4 6 3 10 8 10 11 0 2 -4 4 -10 4 -5 0 -10
-5 -10 -11z"/>
<path d="M1263 2813 c9 -2 23 -2 30 0 6 3 -1 5 -18 5 -16 0 -22 -2 -12 -5z"/>
<path d="M1088 2763 c12 -2 30 -2 40 0 9 3 -1 5 -23 4 -22 0 -30 -2 -17 -4z"/>
<path d="M1208 2763 c6 -2 18 -2 25 0 6 3 1 5 -13 5 -14 0 -19 -2 -12 -5z"/>
<path d="M1288 2763 c7 -3 16 -2 19 1 4 3 -2 6 -13 5 -11 0 -14 -3 -6 -6z"/>
<path d="M945 2751 l-40 -6 60 -8 c32 -4 71 -10 85 -12 14 -3 7 2 -15 9 l-40
14 35 4 c35 5 35 5 -5 5 -22 0 -58 -3 -80 -6z"/>
<path d="M1353 2753 c9 -2 23 -2 30 0 6 3 -1 5 -18 5 -16 0 -22 -2 -12 -5z"/>
<path d="M1428 2743 c7 -3 16 -2 19 1 4 3 -2 6 -13 5 -11 0 -14 -3 -6 -6z"/>
<path d="M1508 2723 c7 -3 16 -2 19 1 4 3 -2 6 -13 5 -11 0 -14 -3 -6 -6z"/>
<path d="M1120 2710 c8 -5 20 -10 25 -10 6 0 3 5 -5 10 -8 5 -19 10 -25 10 -5
0 -3 -5 5 -10z"/>
<path d="M1170 2700 c0 -6 7 -10 15 -10 8 0 15 2 15 4 0 2 -7 6 -15 10 -8 3
-15 1 -15 -4z"/>
<path d="M1764 2669 c-3 -5 6 -9 20 -9 31 0 34 6 6 13 -11 3 -23 1 -26 -4z"/>
<path d="M1330 2640 c8 -5 20 -10 25 -10 6 0 3 5 -5 10 -8 5 -19 10 -25 10 -5
0 -3 -5 5 -10z"/>
<path d="M1573 2605 c0 -22 2 -30 4 -17 2 12 2 30 0 40 -3 9 -5 -1 -4 -23z"/>
<path d="M1370 2626 c0 -2 7 -7 16 -10 8 -3 12 -2 9 4 -6 10 -25 14 -25 6z"/>
<path d="M1410 2606 c0 -3 14 -12 30 -21 17 -9 30 -13 30 -11 0 3 -13 12 -30
21 -16 9 -30 13 -30 11z"/>
<path d="M1507 2549 c7 -7 15 -10 18 -7 3 3 -2 9 -12 12 -14 6 -15 5 -6 -5z"/>
<path d="M1568 2535 c-3 -14 -1 -28 3 -31 5 -3 9 9 9 25 0 38 -6 40 -12 6z"/>
<path d="M1610 2480 c17 -11 57 -14 46 -3 -4 4 -19 9 -34 10 -21 3 -24 1 -12
-7z"/>
<path d="M1700 2484 c84 -8 180 -8 180 -1 0 4 -48 6 -107 5 -60 -1 -92 -3 -73
-4z"/>
<path d="M1887 2404 c3 -9 0 -20 -8 -25 -11 -7 -9 -9 7 -9 17 0 20 5 16 25 -2
14 -8 25 -13 25 -5 0 -6 -7 -2 -16z"/>
<path d="M1718 2384 c12 -8 32 -13 45 -11 19 4 18 4 -5 6 -15 0 -30 6 -33 11
-3 6 -11 10 -18 10 -6 0 -1 -7 11 -16z"/>
<path d="M2246 2349 c-27 -4 -53 -12 -58 -17 -10 -10 -16 -388 -6 -398 4 -3
30 2 59 11 127 43 309 -14 530 -165 57 -38 116 -80 131 -92 15 -12 30 -19 33
-16 3 3 -41 99 -98 214 -57 115 -112 227 -122 249 -33 71 -56 95 -126 130 -80
41 -198 81 -254 87 -22 2 -62 1 -89 -3z"/>
<path d="M1678 2326 c-37 -13 -96 -39 -130 -58 -70 -38 -67 -32 -222 -358 -38
-80 -83 -172 -99 -204 -26 -53 -27 -58 -9 -45 200 139 322 209 441 251 77 27
204 34 259 15 39 -13 43 -13 50 2 4 9 6 98 4 199 l-3 183 -32 19 c-47 29 -170
27 -259 -4z"/>
<path d="M2084 2004 c-4 -10 -43 -55 -89 -99 -84 -82 -95 -103 -95 -181 0 -36
-5 -40 -30 -24 -19 12 -30 -5 -30 -50 1 -108 131 -226 174 -157 12 19 4 37
-48 102 -61 77 -40 213 45 290 22 19 48 35 59 35 24 0 24 2 0 -51 -39 -87 -23
-152 59 -243 52 -57 62 -87 41 -127 -14 -25 -26 -24 -35 4 -7 21 -8 21 -12 -6
-6 -36 -1 -41 31 -33 40 10 93 63 112 111 23 60 15 155 -19 229 -14 31 -29 56
-32 56 -4 0 -18 -13 -32 -30 -36 -44 -46 -38 -40 23 5 55 -13 130 -39 156 -11
13 -14 12 -20 -5z"/>
<path d="M2243 1930 c-28 -12 -28 -12 1 -58 56 -89 79 -216 53 -290 -15 -43
-15 -44 6 -37 12 4 70 9 128 12 124 6 197 -9 302 -62 38 -19 74 -35 80 -35 7
1 46 32 87 71 l75 70 -49 45 c-105 96 -322 227 -448 268 -80 27 -190 34 -235
16z"/>
<path d="M1745 1916 c-92 -21 -204 -68 -302 -126 -96 -58 -263 -178 -263 -188
0 -11 147 -142 158 -142 6 0 43 16 84 35 99 47 203 69 298 61 41 -3 85 -8 96
-12 21 -6 21 -5 7 48 -19 70 -4 147 38 191 16 16 29 36 29 43 0 7 11 26 25 42
l25 30 -32 11 c-60 18 -102 20 -163 7z"/>
<path d="M554 1266 c-43 -19 -64 -69 -64 -151 0 -100 37 -155 106 -155 65 0
104 60 104 163 0 110 -68 177 -146 143z m73 -86 c29 -57 8 -150 -33 -150 -30
0 -44 27 -44 87 0 82 48 121 77 63z"/>
<path d="M2260 1273 c-48 -18 -70 -74 -50 -123 7 -17 29 -37 58 -52 37 -19 47
-30 47 -49 0 -36 -42 -39 -55 -4 -7 20 -16 26 -33 23 -18 -2 -22 -9 -20 -38 2
-43 32 -70 78 -70 47 0 64 8 80 41 35 67 7 136 -66 166 -40 16 -51 39 -23 50
10 4 23 -2 33 -15 19 -26 61 -20 61 8 0 42 -66 80 -110 63z"/>
<path d="M3729 1251 c-53 -53 -34 -127 41 -157 21 -9 41 -22 44 -30 17 -45
-42 -62 -62 -18 -9 18 -19 24 -35 22 -18 -2 -21 -8 -19 -33 5 -44 38 -75 82
-75 47 0 77 22 89 66 16 59 -4 104 -61 133 -32 15 -48 29 -48 42 0 25 36 25
49 0 7 -13 18 -17 36 -13 21 3 24 9 19 26 -8 31 -51 66 -80 66 -15 0 -38 -12
-55 -29z"/>
<path d="M272 1118 l3 -153 30 0 c30 0 30 0 33 63 2 34 7 62 12 62 4 0 19 -28
32 -62 22 -58 27 -63 56 -66 40 -4 41 8 7 84 -14 32 -22 60 -17 63 35 23 43
110 12 141 -16 16 -33 20 -95 20 l-76 0 3 -152z m123 62 c0 -20 -6 -26 -27
-28 -25 -3 -28 0 -28 28 0 28 3 31 28 28 21 -2 27 -8 27 -28z"/>
<path d="M700 1266 c0 -2 17 -39 37 -82 28 -59 39 -96 43 -149 5 -67 6 -70 30
-70 24 0 25 3 30 75 5 58 14 93 42 153 l37 77 -34 0 c-30 0 -35 -4 -51 -45 -9
-25 -20 -45 -25 -45 -4 0 -15 20 -25 45 -15 41 -20 45 -50 45 -19 0 -34 -2
-34 -4z"/>
<path d="M936 1125 c-20 -80 -34 -150 -31 -156 14 -21 46 -9 57 22 9 27 14 30
46 27 29 -2 37 -8 42 -28 4 -18 13 -26 33 -28 35 -4 35 4 -7 169 l-34 134 -35
3 -34 3 -37 -146z m88 -7 c7 -36 6 -38 -19 -38 -20 0 -25 4 -21 18 2 9 8 32
11 51 8 39 18 28 29 -31z"/>
<path d="M1142 1118 l3 -153 78 -3 77 -3 0 41 0 40 -50 0 -50 0 0 115 0 115
-30 0 -31 0 3 -152z"/>
<path d="M1432 1118 l3 -153 25 0 c23 0 25 4 28 58 l3 57 34 0 c67 0 103 77
68 148 l-18 37 -73 3 -73 3 3 -153z m113 72 c8 -25 -10 -50 -36 -50 -15 0 -19
7 -19 35 0 30 3 35 24 35 16 0 27 -7 31 -20z"/>
<path d="M1642 1118 l3 -153 28 -3 c27 -3 27 -3 27 57 0 92 16 91 56 -4 18
-44 24 -50 50 -50 24 0 29 4 27 22 -2 13 -12 43 -24 68 -21 45 -21 46 -3 66
26 29 26 100 0 128 -16 18 -31 21 -93 21 l-74 0 3 -152z m122 77 c10 -26 -5
-45 -35 -45 -24 0 -29 4 -29 23 0 13 3 27 7 30 12 13 51 7 57 -8z"/>
<path d="M1891 1133 c-19 -76 -36 -146 -39 -155 -3 -14 2 -18 23 -18 21 0 29
7 38 30 10 26 16 30 49 30 33 0 37 -3 40 -27 2 -21 9 -29 27 -31 13 -2 27 0
31 5 4 4 -9 73 -29 153 l-37 145 -35 3 -35 3 -33 -138z m84 -15 c7 -34 5 -38
-14 -38 -22 0 -25 9 -15 59 8 39 20 30 29 -21z"/>
<path d="M2094 1257 c-2 -7 -3 -76 -2 -152 l3 -140 30 0 30 0 3 153 3 152 -31
0 c-17 0 -33 -6 -36 -13z"/>
<path d="M2422 1118 l3 -153 80 0 80 0 3 33 3 32 -55 0 c-56 0 -56 0 -56 30 0
24 4 30 23 31 12 1 29 3 37 4 8 1 21 3 28 4 8 0 12 11 10 29 -3 25 -7 27 -50
30 -43 3 -48 5 -48 28 0 23 3 24 56 24 54 0 55 0 52 28 -3 27 -4 27 -86 30
l-83 3 3 -153z"/>
<path d="M2722 1118 l3 -153 75 1 c63 2 77 5 92 24 22 27 23 88 3 118 -12 16
-13 27 -5 41 16 31 12 86 -8 104 -14 13 -38 17 -91 17 l-72 0 3 -152z m116 65
c-2 -22 -9 -29 -30 -31 -24 -3 -28 0 -28 21 0 30 7 37 37 37 21 0 24 -4 21
-27z m7 -124 c0 -20 -6 -25 -32 -27 -31 -3 -33 -1 -33 27 0 32 14 42 45 31 12
-5 20 -16 20 -31z"/>
<path d="M2991 1233 c-5 -21 -21 -83 -35 -139 -33 -127 -33 -134 0 -134 19 0
28 7 35 30 9 25 16 30 44 30 28 0 35 -5 44 -30 7 -23 16 -30 35 -30 36 0 38
-16 -35 273 -9 34 -13 37 -44 37 -31 0 -35 -3 -44 -37z m63 -125 c6 -25 4 -28
-19 -28 -27 0 -27 -2 -9 78 l7 27 7 -25 c4 -14 10 -37 14 -52z"/>
<path d="M3172 1118 l3 -153 25 0 c23 0 25 4 28 58 l3 57 34 0 c57 0 83 43 72
123 -7 54 -27 67 -104 67 l-64 0 3 -152z m103 57 c0 -23 -5 -31 -22 -33 -20
-3 -23 1 -23 33 0 32 3 36 23 33 17 -2 22 -10 22 -33z"/>
<path d="M3368 1235 c-4 -34 -3 -35 29 -35 l32 0 3 -117 3 -118 25 0 25 0 3
118 3 117 35 0 c34 0 35 1 32 33 l-3 32 -91 3 -92 3 -4 -36z"/>
<path d="M3592 1118 l3 -153 28 -3 27 -3 0 155 0 156 -30 0 -31 0 3 -152z"/>
<path d="M3900 1235 c0 -32 2 -35 30 -35 l29 0 3 -117 3 -118 27 -3 27 -3 3
118 3 118 33 3 c29 3 32 6 32 38 l0 34 -95 0 -95 0 0 -35z"/>
<path d="M1544 846 c-68 -30 -64 -140 6 -165 44 -15 65 -14 100 4 34 18 42 55
11 55 -10 0 -24 -7 -31 -15 -15 -18 -51 -20 -68 -3 -15 15 -16 53 -2 79 11 20
54 26 65 9 8 -13 55 -13 55 -1 0 17 -52 51 -79 51 -14 -1 -40 -7 -57 -14z"/>
<path d="M1988 852 c-15 -3 -18 -15 -18 -71 0 -87 17 -106 95 -106 78 0 95 19
95 107 l0 68 -30 0 c-29 0 -29 0 -32 -67 l-3 -68 -30 0 -30 0 -3 67 c-3 67
-10 78 -44 70z"/>
<path d="M2474 846 c-56 -25 -68 -102 -24 -146 40 -40 137 -34 160 11 14 26
-25 37 -50 14 -44 -40 -98 13 -72 70 12 26 54 35 67 15 7 -12 55 -13 55 -2 0
18 -38 43 -71 48 -19 2 -48 -2 -65 -10z"/>
<path d="M2678 852 c-15 -3 -18 -16 -18 -88 l0 -85 28 3 c22 2 28 8 30 36 3
29 6 32 37 32 34 0 50 -19 43 -51 -2 -9 8 -15 25 -17 l27 -3 0 86 0 86 -27 -3
c-22 -2 -28 -8 -28 -28 0 -22 -5 -25 -37 -28 -34 -3 -38 -1 -39 20 -1 13 -1
26 -1 30 2 9 -20 15 -40 10z"/>
<path d="M1730 765 l0 -86 28 3 c22 2 28 8 30 36 3 29 6 32 38 32 32 0 34 -2
34 -35 0 -32 2 -35 30 -35 l30 0 0 85 0 85 -30 0 c-27 0 -30 -3 -30 -30 0 -28
-3 -30 -34 -30 -30 0 -35 3 -38 28 -2 21 -9 28 -30 30 l-28 3 0 -86z"/>
<path d="M2210 765 l0 -85 30 0 c28 0 30 3 30 35 0 23 5 35 14 35 8 0 23 -16
35 -35 16 -28 27 -35 51 -35 l31 0 -16 29 c-8 17 -20 33 -26 36 -6 5 -3 12 10
22 23 16 28 52 9 71 -7 7 -43 12 -90 12 l-78 0 0 -85z m118 38 c-2 -11 -14
-19 -31 -21 -22 -3 -27 1 -27 17 0 17 6 21 31 21 24 0 30 -4 27 -17z"/>
<path d="M700 769 c-102 -5 -194 -10 -205 -12 -15 -2 439 -21 545 -22 8 0 15
9 15 20 0 18 -7 20 -85 21 -47 1 -168 -2 -270 -7z"/>
<path d="M3304 765 c-4 -9 -3 -20 2 -23 5 -4 88 -5 184 -1 96 4 222 8 280 9
l105 3 -90 7 c-49 4 -177 11 -282 15 -174 6 -194 5 -199 -10z"/>
<path d="M890 540 c0 -5 9 -10 20 -10 18 0 20 -7 20 -66 0 -48 3 -65 13 -61
13 4 14 9 16 80 1 40 4 47 21 47 11 0 20 5 20 10 0 6 -25 10 -55 10 -30 0 -55
-4 -55 -10z"/>
<path d="M1037 543 c-11 -19 -2 -136 11 -141 9 -3 13 3 12 14 -5 47 -1 54 35
54 30 0 35 -3 35 -22 0 -27 15 -54 23 -42 9 17 7 133 -3 139 -9 6 -14 -11 -13
-43 1 -9 -11 -12 -40 -10 -34 3 -41 7 -44 27 -4 28 -9 36 -16 24z"/>
<path d="M1207 543 c-4 -3 -7 -37 -7 -75 l0 -68 56 0 c34 0 53 4 49 10 -3 6
-24 10 -46 10 -36 0 -40 2 -37 23 2 18 10 23 41 25 46 4 39 22 -9 22 -27 0
-34 4 -34 20 0 17 7 20 40 20 22 0 40 5 40 10 0 11 -83 14 -93 3z"/>
<path d="M1468 540 c-4 -8 -9 -37 -10 -65 -2 -39 -7 -51 -21 -53 -10 -2 -25 5
-32 15 -11 14 -14 15 -15 3 0 -38 40 -56 70 -32 18 15 21 26 18 82 -2 36 -6
58 -10 50z"/>
<path d="M1542 527 c-45 -48 -16 -130 46 -130 45 0 72 28 72 75 0 71 -72 105
-118 55z m88 -16 c14 -26 13 -64 -2 -79 -7 -7 -24 -12 -40 -12 -29 0 -48 23
-48 59 0 46 69 70 90 32z"/>
<path d="M1680 545 c0 -5 9 -24 19 -42 11 -17 21 -46 23 -64 4 -45 28 -51 28
-7 0 19 11 49 25 70 14 20 21 39 15 43 -5 3 -14 -2 -19 -12 -28 -50 -30 -50
-61 -13 -16 19 -30 31 -30 25z"/>
<path d="M1840 530 c-27 -27 -27 -90 0 -115 48 -44 120 -10 120 56 0 69 -74
105 -120 59z m77 -8 c27 -17 20 -90 -9 -101 -47 -18 -79 28 -59 82 11 27 41
36 68 19z"/>
<path d="M1994 526 c-9 -36 2 -96 20 -114 18 -19 69 -20 90 -2 18 14 23 125 6
135 -6 4 -10 -11 -10 -37 0 -74 -8 -90 -44 -86 -30 3 -31 5 -34 58 -4 63 -18
86 -28 46z"/>
<path d="M2172 538 c-25 -25 -13 -49 33 -69 50 -22 56 -35 23 -48 -16 -6 -28
-4 -39 5 -18 16 -29 18 -29 4 0 -5 11 -17 25 -26 21 -14 30 -14 54 -4 57 23
44 67 -24 90 -20 7 -34 17 -32 23 5 17 48 21 57 7 4 -7 13 -11 20 -8 9 3 8 9
-4 21 -20 20 -67 22 -84 5z"/>
<path d="M2380 525 c-40 -43 -27 -105 27 -126 27 -10 69 6 78 29 8 23 -5 29
-19 9 -20 -26 -64 -22 -78 8 -26 58 28 109 73 69 25 -23 37 -10 14 16 -25 28
-66 25 -95 -5z"/>
<path d="M2525 527 c-10 -37 -1 -120 13 -125 8 -2 12 8 12 32 0 34 2 36 34 36
32 0 35 -3 38 -32 2 -17 9 -33 16 -36 15 -5 18 133 3 143 -12 7 -25 -31 -16
-45 4 -6 -10 -10 -34 -10 -37 0 -41 3 -41 24 0 33 -18 43 -25 13z"/>
<path d="M2716 498 c-33 -76 -39 -98 -26 -98 6 0 13 7 16 15 4 10 20 15 45 15
28 0 39 -4 39 -15 0 -8 7 -15 15 -15 12 0 12 5 0 39 -18 51 -42 98 -55 106 -6
4 -21 -17 -34 -47z m48 -10 c9 -34 8 -38 -12 -38 -27 0 -32 9 -20 36 14 30 24
30 32 2z"/>
<path d="M2857 543 c-11 -10 -8 -143 3 -143 6 0 10 14 10 30 0 28 3 30 35 30
28 0 38 5 47 26 11 23 10 29 -11 45 -23 19 -71 26 -84 12z m76 -32 c6 -25 0
-31 -35 -31 -23 0 -28 4 -28 25 0 21 5 25 29 25 20 0 30 -6 34 -19z"/>
<path d="M2998 538 c-3 -10 -3 -74 1 -130 1 -12 101 -9 101 2 0 6 -17 10 -38
10 -45 0 -52 4 -45 31 4 14 14 19 40 19 20 0 32 4 28 10 -3 6 -21 10 -40 10
-28 0 -32 3 -28 20 4 16 14 20 44 20 22 0 39 5 39 10 0 15 -97 13 -102 -2z"/>
<path d="M832 515 c-22 -47 -8 -155 19 -155 4 0 3 14 -3 31 -6 17 -8 57 -5 90
3 32 4 59 3 59 -2 0 -8 -11 -14 -25z"/>
<path d="M3140 470 l0 -70 51 0 c31 0 48 4 44 10 -3 6 -22 10 -41 10 l-34 0 0
60 c0 33 -4 60 -10 60 -6 0 -10 -30 -10 -70z"/>
<path d="M3286 485 c4 -28 1 -69 -5 -90 -9 -35 -8 -38 4 -22 23 31 28 90 11
128 l-15 34 5 -50z"/>
</g>
</svg>
